<svg width="24" height="23" viewBox="0 0 24 23" fill="none" xmlns="http://www.w3.org/2000/svg">
<path d="M18.0359 13.607L15.8663 13.2425L11.0932 12.4407M11.0932 12.4407L7.71562 16.6115M11.0932 12.4407L4.07256 13.0664M11.0932 12.4407L6.53705 11.6754M11.0932 12.4407L4.84663 8.4583M11.0932 12.4407L5.32582 5.60564M11.0932 12.4407L8.08412 4.83416M11.0932 12.4407L6.02323 2.83983M11.0932 12.4407L7.52771 1.71873M11.0932 12.4407L8.31371 0.868366M11.0932 12.4407L6.72501 22.526M11.0932 12.4407L5.59378 22.3981M11.0932 12.4407L3.18791 18.3329L9.64401 13.0998M11.0932 12.4407L9.64401 13.0998M11.0932 12.4407L0.334772 16.7255L9.64401 13.0998M11.0932 12.4407L1.64494 14.238M11.0932 12.4407L3.15622 5.2412M11.0932 12.4407L6.92916 3.10021M11.0932 12.4407L3.98625 22.4497M11.0932 12.4407L5.85351 10.4324M11.0932 12.4407L5.17144 18.1238M11.0932 12.4407L6.81882 5.86514M11.0932 12.4407L20.2055 13.9714L23.026 14.4452M8.19481 13.7589L9.64401 13.0998" stroke="#9AA6DA" stroke-width="0.5"/>
</svg>
