<svg width="26" height="13" viewBox="0 0 26 13" fill="none" xmlns="http://www.w3.org/2000/svg">
<path d="M4.944 0.0479994V2.448H0.88V0.0479994H4.944ZM0.992 4.16H4.832V12H0.992V4.16Z" fill="#4F75FF"/>
<path d="M21.3321 6.16V1.76H25.3321V6.88C25.3321 7.78667 25.1615 8.56 24.8201 9.2C24.4895 9.82933 24.0255 10.352 23.4281 10.768C22.8308 11.1733 22.1428 11.488 21.3641 11.712C20.5855 11.936 19.7481 12.0907 18.8521 12.176C17.9668 12.272 17.0655 12.32 16.1481 12.32C15.1775 12.32 14.2388 12.272 13.3321 12.176C12.4255 12.0907 11.5828 11.936 10.8041 11.712C10.0361 11.488 9.36413 11.1733 8.78813 10.768C8.21213 10.352 7.75879 9.82933 7.42813 9.2C7.10813 8.56 6.94813 7.78667 6.94813 6.88V1.76H10.9481V6.16C10.9481 7.01333 11.1561 7.664 11.5721 8.112C11.9881 8.56 12.5801 8.86933 13.3481 9.04C14.1268 9.2 15.0601 9.28 16.1481 9.28C17.2041 9.28 18.1215 9.2 18.9001 9.04C19.6788 8.86933 20.2761 8.56 20.6921 8.112C21.1188 7.664 21.3321 7.01333 21.3321 6.16Z" fill="#111827"/>
</svg>
