<svg width="111" height="97" viewBox="0 0 111 97" fill="none" xmlns="http://www.w3.org/2000/svg">
<rect width="6.60064" height="20.6835" transform="matrix(0.980805 -0.194993 -0.186708 -0.982415 68.751 71.6196)" fill="url(#paint0_linear_758_2636)" fill-opacity="0.3"/>
<ellipse rx="3.30032" ry="3.6196" transform="matrix(0.980805 -0.194993 -0.186708 -0.982415 72.6638 74.532)" fill="white"/>
<rect width="6.59969" height="20.6863" transform="matrix(0.984124 -0.177481 -0.169893 -0.985463 76.1647 71.5828)" fill="url(#paint1_linear_758_2636)" fill-opacity="0.3"/>
<ellipse rx="3.29984" ry="3.6201" transform="matrix(0.984124 -0.177481 -0.169893 -0.985463 80.0272 74.5646)" fill="white"/>
<path d="M85.2389 65.0697C85.609 67.2167 86.3329 69.0296 87.4104 70.5085C88.5129 71.9828 89.8375 73.031 91.3843 73.653C92.9311 74.275 94.5646 74.4308 96.2849 74.1206C97.7558 73.8553 98.9881 73.3242 99.9818 72.5272C101 71.7257 101.725 70.7842 102.155 69.7027L102.665 72.661L109.06 71.5077L105.458 50.612L99.0631 51.7653L99.5731 54.7236C98.7819 53.8624 97.7738 53.2334 96.5486 52.8365C95.3483 52.4352 94.0127 52.3672 92.5418 52.6324C90.8465 52.9382 89.376 53.6538 88.1305 54.7794C86.8893 55.9299 85.9972 57.3907 85.4543 59.1618C84.9405 60.9534 84.8687 62.9227 85.2389 65.0697ZM100.864 62.2131C101.14 63.8109 100.908 65.1526 100.17 66.2381C99.4567 67.3192 98.4643 67.9744 97.1928 68.2037C95.9213 68.433 94.7572 68.1667 93.7004 67.4049C92.6729 66.6635 92.0214 65.494 91.7459 63.8962C91.4705 62.2984 91.6873 60.9465 92.3963 59.8405C93.1346 58.7549 94.1395 58.0975 95.4109 57.8682C96.6824 57.6389 97.8341 57.9074 98.8659 58.6737C99.9227 59.4356 100.589 60.6154 100.864 62.2131Z" fill="url(#paint2_linear_758_2636)" fill-opacity="0.3"/>
<path d="M65.7422 78.4627L60.4919 50.8372L54.1186 52.1042L59.3689 79.7298L65.7422 78.4627Z" fill="url(#paint3_linear_758_2636)" fill-opacity="0.2"/>
<path d="M55.0709 71.5387L51.1119 50.7075L44.7386 51.9746L45.2778 54.8118C44.4568 54.0194 43.4328 53.4481 42.2059 53.098C41.0086 52.7678 39.7391 52.7361 38.3973 53.0028C36.8071 53.319 35.4695 53.9465 34.3844 54.8854C33.3041 55.8492 32.5562 57.0698 32.1407 58.5471C31.7253 60.0244 31.6902 61.6715 32.0355 63.4883L34.3484 75.6585L40.6844 74.3988L38.5347 63.0873C38.2698 61.6936 38.4243 60.5393 38.9982 59.6245C39.5722 58.7098 40.4679 58.1313 41.6854 57.8893C42.9278 57.6423 43.9825 57.8329 44.8497 58.4612C45.7169 59.0895 46.2829 60.1005 46.5478 61.4942L48.6976 72.8057L55.0709 71.5387Z" fill="url(#paint4_linear_758_2636)" fill-opacity="0.3"/>
<path d="M51.1581 30.1776V51.3816H44.6601V48.4936C44.0014 49.4309 43.1021 50.1909 41.9621 50.7736C40.8474 51.3309 39.6061 51.6096 38.2381 51.6096C36.6167 51.6096 35.1854 51.2549 33.9441 50.5456C32.7027 49.8109 31.7401 48.7596 31.0561 47.3916C30.3721 46.0236 30.0301 44.4149 30.0301 42.5656V30.1776H36.4901V41.6916C36.4901 43.1103 36.8574 44.2123 37.5921 44.9976C38.3267 45.7829 39.3147 46.1756 40.5561 46.1756C41.8227 46.1756 42.8234 45.7829 43.5581 44.9976C44.2927 44.2123 44.6601 43.1103 44.6601 41.6916V30.1776H51.1581Z" fill="white"/>
<path d="M82.6313 40.6325C82.6313 38.4538 83.0366 36.5411 83.8473 34.8945C84.6833 33.2478 85.8106 31.9811 87.2293 31.0945C88.6479 30.2078 90.2313 29.7645 91.9793 29.7645C93.4739 29.7645 94.7786 30.0685 95.8933 30.6765C97.0333 31.2845 97.9073 32.0825 98.5153 33.0705V30.0685H105.013V51.2725H98.5153V48.2705C97.8819 49.2585 96.9953 50.0565 95.8553 50.6645C94.7406 51.2725 93.4359 51.5765 91.9413 51.5765C90.2186 51.5765 88.6479 51.1331 87.2293 50.2465C85.8106 49.3345 84.6833 48.0551 83.8473 46.4085C83.0366 44.7365 82.6313 42.8111 82.6313 40.6325ZM98.5153 40.6705C98.5153 39.0491 98.0593 37.7698 97.1473 36.8325C96.2606 35.8951 95.1713 35.4265 93.8793 35.4265C92.5873 35.4265 91.4853 35.8951 90.5733 36.8325C89.6866 37.7445 89.2433 39.0111 89.2433 40.6325C89.2433 42.2538 89.6866 43.5458 90.5733 44.5085C91.4853 45.4458 92.5873 45.9145 93.8793 45.9145C95.1713 45.9145 96.2606 45.4458 97.1473 44.5085C98.0593 43.5711 98.5153 42.2918 98.5153 40.6705Z" fill="white"/>
<path d="M60.2732 23.2616V51.3816H53.7752V23.2616H60.2732Z" fill="white"/>
<rect x="64.6088" y="31.1633" width="6.59511" height="19.2725" fill="white"/>
<ellipse cx="67.9063" cy="27.7907" rx="3.29755" ry="3.37268" fill="#C0A40E"/>
<rect x="18.4424" y="31.1633" width="6.59511" height="19.2725" fill="white"/>
<rect width="6.60064" height="20.6835" transform="matrix(0.980805 -0.194993 -0.186708 -0.982415 22.5854 71.6196)" fill="url(#paint5_linear_758_2636)" fill-opacity="0.2"/>
<rect x="72.1456" y="31.1633" width="6.59511" height="19.2725" fill="white"/>
<ellipse cx="75.4431" cy="27.7907" rx="3.29755" ry="3.37268" fill="#C0A40E"/>
<g filter="url(#filter0_f_758_2636)">
<path d="M11.2777 13.7204H10.1388L11.2777 14.9005L10.1388 16.0806L11.2777 17.2607L10.1388 18.4408L9 19.6209L10.1388 20.801L9 21.9811L11.2777 23.1612L9 24.3413L11.2777 25.5214V26.7015L10.1388 27.8816L13.5553 29.0617L12.4165 30.2418H14.6941L16.9718 29.643L18.1106 31.4219L20.3883 30.2418L21.5271 29.0617L23.8048 30.2418H26.0824L27.2212 29.0617H28.3601L29.4989 26.7015L30.6377 25.5214L31.7766 24.3413H32.9154V21.9811L34.0542 20.801L32.9154 19.6209V17.2607L31.7766 16.0806V14.9005L29.4989 13.7204V12.5403H27.2212L28.3601 11.3602H27.2212L26.0824 9L24.9436 10.1801L22.6659 9L21.5271 11.3602L20.3883 9L19.2494 11.3602L18.1106 10.1801L16.9718 9L15.833 11.3602L13.5553 10.1801V12.5403L11.2777 13.7204Z" fill="url(#paint6_radial_758_2636)"/>
</g>
<g filter="url(#filter1_f_758_2636)">
<path d="M14.3437 16.5061H13.5991L14.3437 17.419L13.5991 18.3319L14.3437 19.2448L13.5991 20.1577L12.8545 21.0706L13.5991 21.9836L12.8545 22.8965L14.3437 23.8094L12.8545 24.7223L14.3437 25.6352V26.5481L13.5991 27.461L15.833 28.3739L15.0883 29.2868H16.5776L18.0668 28.8236L18.8114 30.1997L20.3007 29.2868L21.0453 28.3739L22.5345 29.2868H24.0238L24.7684 28.3739H25.513L26.2576 26.5481L27.0022 25.6352L27.7469 24.7223H28.4915V22.8965L29.2361 21.9836L28.4915 21.0706V19.2448L27.7469 18.3319V17.419L26.2576 16.5061V15.5932H24.7684L25.513 14.6803H24.7684L24.0238 12.8545L23.2791 13.7674L21.7899 12.8545L21.0453 14.6803L20.3007 12.8545L19.5561 14.6803L18.8114 13.7674L18.0668 12.8545L17.3222 14.6803L15.833 13.7674V15.5932L14.3437 16.5061Z" fill="url(#paint7_radial_758_2636)"/>
</g>
<g filter="url(#filter2_b_758_2636)">
<path d="M16.0082 18.1798H15.395L16.0082 18.7884L15.395 19.397L16.0082 20.0056L15.395 20.6142L14.7818 21.2228L15.395 21.8314L14.7818 22.44L16.0082 23.0486L14.7818 23.6572L16.0082 24.2658V24.8744L15.395 25.483L17.2346 26.0916L16.6214 26.7002H17.8478L19.0743 26.3914L19.6875 27.3088L20.9139 26.7002L21.5271 26.0916L22.7536 26.7002H23.98L24.5932 26.0916H25.2064L25.8196 24.8744L26.4329 24.2658L27.0461 23.6572H27.6593V22.44L28.2725 21.8314L27.6593 21.2228V20.0056L27.0461 19.397V18.7884L25.8196 18.1798V17.5712H24.5932L25.2064 16.9626H24.5932L23.98 15.7454L23.3668 16.354L22.1403 15.7454L21.5271 16.9626L20.9139 15.7454L20.3007 16.9626L19.6875 16.354L19.0743 15.7454L18.4611 16.9626L17.2346 16.354V17.5712L16.0082 18.1798Z" fill="#4D71FF"/>
</g>
<g filter="url(#filter3_b_758_2636)">
<path d="M19.1619 19.8534H18.8991L19.1619 20.1577L18.8991 20.462L19.1619 20.7663L18.8991 21.0706L18.6363 21.3749L18.8991 21.6793L18.6363 21.9836L19.1619 22.2879L18.6363 22.5922L19.1619 22.8965V23.2008L18.8991 23.5051L19.6875 23.8094L19.4247 24.1137H19.9503L20.4759 23.9593L20.7387 24.418L21.2643 24.1137L21.5271 23.8094L22.0527 24.1137H22.5784L22.8412 23.8094H23.104L23.3668 23.2008L23.6296 22.8965L23.8924 22.5922H24.1552V21.9836L24.418 21.6793L24.1552 21.3749V20.7663L23.8924 20.462V20.1577L23.3668 19.8534V19.5491H22.8412L23.104 19.2448H22.8412L22.5784 18.6362L22.3156 18.9405L21.7899 18.6362L21.5271 19.2448L21.2643 18.6362L21.0015 19.2448L20.7387 18.9405L20.4759 18.6362L20.2131 19.2448L19.6875 18.9405V19.5491L19.1619 19.8534Z" fill="url(#paint8_radial_758_2636)"/>
</g>
<g filter="url(#filter4_f_758_2636)">
<path d="M19.9496 87.9513L18.9406 88.1519L19.7379 86.8376L18.5173 85.9245L19.3146 84.6102L18.094 83.6972L16.8734 82.7841L17.6707 81.4698L16.4501 80.5567L18.2563 79.0419L16.0268 78.3294L17.833 76.8145L17.6214 75.7009L16.4008 74.7878L19.2159 73.0723L17.9953 72.1593L20.0132 71.7581L22.1384 71.9221L22.8283 70.0427L25.0578 70.7552L26.2784 71.6683L28.0846 70.1534L30.1024 69.7523L31.323 70.6653L32.3319 70.4648L33.7642 72.4915L34.9847 73.4046L36.2053 74.3177L37.2143 74.1171L37.6376 76.3445L38.8581 77.2576L38.0609 78.5718L38.4842 80.7992L37.6869 82.1134L37.8986 83.2271L36.0924 84.7419L36.304 85.8556L34.2862 86.2568L35.5067 87.1699L34.4978 87.3704L33.9122 89.7984L32.6916 88.8853L30.8854 90.4001L29.4532 88.3734L28.8676 90.8013L27.4353 88.7745L26.6381 90.0888L25.8408 91.403L24.4086 89.3763L22.6024 90.8911L22.1791 88.6638L19.9496 87.9513Z" fill="url(#paint9_radial_758_2636)" fill-opacity="0.2"/>
</g>
<g filter="url(#filter5_b_758_2636)">
<path d="M25.3822 83.0188L25.0038 83.094L25.2814 82.4885L24.8022 82.0334L25.0798 81.4278L24.6007 80.9727L24.1215 80.5176L24.3991 79.9121L23.92 79.457L24.5759 78.7762L23.7184 78.3964L24.3743 77.7156L24.2735 77.1853L23.7944 76.7302L24.8286 75.9742L24.3495 75.5191L25.1062 75.3687L25.914 75.4873L26.1404 74.6127L26.9979 74.9926L27.4771 75.4477L28.133 74.7669L28.8897 74.6165L29.3688 75.0716L29.7471 74.9964L30.3271 75.9818L30.8062 76.4369L31.2853 76.892L31.6637 76.8168L31.8653 77.8774L32.3444 78.3325L32.0668 78.938L32.2684 79.9987L31.9908 80.6042L32.0916 81.1345L31.4357 81.8153L31.5365 82.3456L30.7798 82.4961L31.259 82.9512L30.8806 83.0264L30.7038 84.1622L30.2247 83.7071L29.5688 84.3879L28.9889 83.4025L28.8121 84.5383L28.2322 83.5529L27.9546 84.1585L27.6771 84.764L27.0971 83.7786L26.4412 84.4593L26.2397 83.3987L25.3822 83.0188Z" fill="url(#paint10_radial_758_2636)" fill-opacity="0.2"/>
</g>
<g filter="url(#filter6_b_758_2636)">
<path d="M26.6699 81.9921L26.5017 82.0255L26.6296 81.78L26.4211 81.6013L26.5489 81.3557L26.3405 81.177L26.132 80.9983L26.2598 80.7528L26.0514 80.5741L26.3474 80.2951L25.9707 80.1498L26.2667 79.8708L26.2264 79.6587L26.018 79.48L26.4821 79.1676L26.2736 78.9889L26.6099 78.922L26.9667 78.9628L27.0741 78.6096L27.4507 78.7549L27.6592 78.9336L27.9552 78.6546L28.2915 78.5877L28.5 78.7664L28.6681 78.733L28.9169 79.1238L29.1254 79.3025L29.3338 79.4812L29.502 79.4478L29.5826 79.872L29.7911 80.0507L29.6632 80.2963L29.7439 80.7205L29.616 80.9661L29.6564 81.1782L29.3604 81.4572L29.4007 81.6693L29.0644 81.7362L29.2728 81.9149L29.1047 81.9483L29.0172 82.406L28.8087 82.2273L28.5127 82.5063L28.2639 82.1155L28.1764 82.5732L27.9276 82.1823L27.7998 82.4279L27.6719 82.6735L27.4231 82.2826L27.1271 82.5616L27.0465 82.1374L26.6699 81.9921Z" fill="url(#paint11_radial_758_2636)" fill-opacity="0.1"/>
</g>
<g filter="url(#filter7_f_758_2636)">
<path d="M11.4404 13.4257H10.2202L11.4404 14.7339L10.2202 16.0421L11.4404 17.3503L10.2202 18.6585L9 19.9667L10.2202 21.2749L9 22.5831L11.4404 23.8913L9 25.1995L11.4404 26.5077V27.8159L10.2202 29.1241L13.8808 30.4323L12.6606 31.7405H15.101L17.5414 31.0767L18.7616 33.0488L21.202 31.7405L22.4222 30.4323L24.8626 31.7405H27.303L28.5232 30.4323H29.7434L30.9636 27.8159L32.1838 26.5077L33.404 25.1995H34.6242V22.5831L35.8444 21.2749L34.6242 19.9667V17.3503L33.404 16.0421V14.7339L30.9636 13.4257V12.1175H28.5232L29.7434 10.8093H28.5232L27.303 8.19287L26.0828 9.50108L23.6424 8.19287L22.4222 10.8093L21.202 8.19287L19.9818 10.8093L18.7616 9.50108L17.5414 8.19287L16.3212 10.8093L13.8808 9.50108V12.1175L11.4404 13.4257Z" fill="url(#paint12_radial_758_2636)"/>
</g>
<path d="M13.8809 15.1527H12.9319L13.8809 16.147L12.9319 17.1412L13.8809 18.1354L12.9319 19.1297L11.9828 20.1239L12.9319 21.1181L11.9828 22.1124L13.8809 23.1066L11.9828 24.1008L13.8809 25.0951V26.0893L12.9319 27.0835L15.779 28.0778L14.83 29.072H16.7281L18.6261 28.5675L19.5752 30.0662L21.4733 29.072L22.4223 28.0778L24.3204 29.072H26.2185L27.1675 28.0778H28.1166L29.0656 26.0893L30.0147 25.0951L30.9637 24.1008H31.9127V22.1124L32.8618 21.1181L31.9127 20.1239V18.1354L30.9637 17.1412V16.147L29.0656 15.1527V14.1585H27.1675L28.1166 13.1643H27.1675L26.2185 11.1758L25.2694 12.17L23.3714 11.1758L22.4223 13.1643L21.4733 11.1758L20.5242 13.1643L19.5752 12.17L18.6261 11.1758L17.6771 13.1643L15.779 12.17V14.1585L13.8809 15.1527Z" fill="url(#paint13_radial_758_2636)"/>
<g filter="url(#filter8_b_758_2636)">
<path d="M16.3211 16.8793H15.6433L16.3211 17.5595L15.6433 18.2398L16.3211 18.9201L15.6433 19.6003L14.9654 20.2806L15.6433 20.9609L14.9654 21.6411L16.3211 22.3214L14.9654 23.0017L16.3211 23.6819V24.3622L15.6433 25.0425L17.6769 25.7227L16.999 26.403H18.3548L19.7106 26.0578L20.3885 27.0833L21.7442 26.403L22.4221 25.7227L23.7779 26.403H25.1337L25.8116 25.7227H26.4895L27.1673 24.3622L27.8452 23.6819L28.5231 23.0017H29.201V21.6411L29.8789 20.9609L29.201 20.2806V18.9201L28.5231 18.2398V17.5595L27.1673 16.8793V16.199H25.8116L26.4895 15.5187H25.8116L25.1337 14.1582L24.4558 14.8385L23.1 14.1582L22.4221 15.5187L21.7442 14.1582L21.0664 15.5187L20.3885 14.8385L19.7106 14.1582L19.0327 15.5187L17.6769 14.8385V16.199L16.3211 16.8793Z" fill="url(#paint14_radial_758_2636)"/>
</g>
<g filter="url(#filter9_b_758_2636)">
<path d="M20.0974 18.9836H19.8361L20.0974 19.2862L19.8361 19.5887L20.0974 19.8913L19.8361 20.1938L19.5748 20.4964L19.8361 20.7989L19.5748 21.1015L20.0974 21.404L19.5748 21.7066L20.0974 22.0091V22.3117L19.8361 22.6142L20.62 22.9168L20.3587 23.2193H20.8813L21.4038 23.0658L21.6651 23.5218L22.1877 23.2193L22.449 22.9168L22.9716 23.2193H23.4942L23.7555 22.9168H24.0168L24.278 22.3117L24.5393 22.0091L24.8006 21.7066H25.0619V21.1015L25.3232 20.7989L25.0619 20.4964V19.8913L24.8006 19.5887V19.2862L24.278 18.9836V18.6811H23.7555L24.0168 18.3785H23.7555L23.4942 17.7734L23.2329 18.076L22.7103 17.7734L22.449 18.3785L22.1877 17.7734L21.9264 18.3785L21.6651 18.076L21.4038 17.7734L21.1425 18.3785L20.62 18.076V18.6811L20.0974 18.9836Z" fill="url(#paint15_radial_758_2636)"/>
</g>
<g opacity="0.2">
<g filter="url(#filter10_f_758_2636)">
<path d="M16.4404 72.4257H15.2202L16.4404 73.7339L15.2202 75.0421L16.4404 76.3503L15.2202 77.6585L14 78.9667L15.2202 80.2749L14 81.5831L16.4404 82.8913L14 84.1995L16.4404 85.5077V86.8159L15.2202 88.1241L18.8808 89.4323L17.6606 90.7405H20.101L22.5414 90.0767L23.7616 92.0488L26.202 90.7405L27.4222 89.4323L29.8626 90.7405H32.303L33.5232 89.4323H34.7434L35.9636 86.8159L37.1838 85.5077L38.404 84.1995H39.6242V81.5831L40.8444 80.2749L39.6242 78.9667V76.3503L38.404 75.0421V73.7339L35.9636 72.4257V71.1175H33.5232L34.7434 69.8093H33.5232L32.303 67.1929L31.0828 68.5011L28.6424 67.1929L27.4222 69.8093L26.202 67.1929L24.9818 69.8093L23.7616 68.5011L22.5414 67.1929L21.3212 69.8093L18.8808 68.5011V71.1175L16.4404 72.4257Z" fill="url(#paint16_radial_758_2636)"/>
</g>
<path d="M18.8809 74.1527H17.9319L18.8809 75.147L17.9319 76.1412L18.8809 77.1354L17.9319 78.1297L16.9828 79.1239L17.9319 80.1181L16.9828 81.1124L18.8809 82.1066L16.9828 83.1008L18.8809 84.0951V85.0893L17.9319 86.0835L20.779 87.0778L19.83 88.072H21.7281L23.6261 87.5675L24.5752 89.0662L26.4733 88.072L27.4223 87.0778L29.3204 88.072H31.2185L32.1675 87.0778H33.1166L34.0656 85.0893L35.0147 84.0951L35.9637 83.1008H36.9127V81.1124L37.8618 80.1181L36.9127 79.1239V77.1354L35.9637 76.1412V75.147L34.0656 74.1527V73.1585H32.1675L33.1166 72.1643H32.1675L31.2185 70.1758L30.2694 71.17L28.3714 70.1758L27.4223 72.1643L26.4733 70.1758L25.5242 72.1643L24.5752 71.17L23.6261 70.1758L22.6771 72.1643L20.779 71.17V73.1585L18.8809 74.1527Z" fill="url(#paint17_radial_758_2636)"/>
<g filter="url(#filter11_b_758_2636)">
<path d="M21.3211 75.8793H20.6433L21.3211 76.5595L20.6433 77.2398L21.3211 77.9201L20.6433 78.6003L19.9654 79.2806L20.6433 79.9609L19.9654 80.6411L21.3211 81.3214L19.9654 82.0017L21.3211 82.6819V83.3622L20.6433 84.0425L22.6769 84.7227L21.999 85.403H23.3548L24.7106 85.0578L25.3885 86.0833L26.7442 85.403L27.4221 84.7227L28.7779 85.403H30.1337L30.8116 84.7227H31.4895L32.1673 83.3622L32.8452 82.6819L33.5231 82.0017H34.201V80.6411L34.8789 79.9609L34.201 79.2806V77.9201L33.5231 77.2398V76.5595L32.1673 75.8793V75.199H30.8116L31.4895 74.5187H30.8116L30.1337 73.1582L29.4558 73.8385L28.1 73.1582L27.4221 74.5187L26.7442 73.1582L26.0664 74.5187L25.3885 73.8385L24.7106 73.1582L24.0327 74.5187L22.6769 73.8385V75.199L21.3211 75.8793Z" fill="url(#paint18_radial_758_2636)"/>
</g>
<g filter="url(#filter12_b_758_2636)">
<path d="M25.0974 77.9836H24.8361L25.0974 78.2862L24.8361 78.5887L25.0974 78.8913L24.8361 79.1938L24.5748 79.4964L24.8361 79.7989L24.5748 80.1015L25.0974 80.404L24.5748 80.7066L25.0974 81.0091V81.3117L24.8361 81.6142L25.62 81.9168L25.3587 82.2193H25.8813L26.4038 82.0658L26.6651 82.5218L27.1877 82.2193L27.449 81.9168L27.9716 82.2193H28.4942L28.7555 81.9168H29.0168L29.278 81.3117L29.5393 81.0091L29.8006 80.7066H30.0619V80.1015L30.3232 79.7989L30.0619 79.4964V78.8913L29.8006 78.5887V78.2862L29.278 77.9836V77.6811H28.7555L29.0168 77.3785H28.7555L28.4942 76.7734L28.2329 77.076L27.7103 76.7734L27.449 77.3785L27.1877 76.7734L26.9264 77.3785L26.6651 77.076L26.4038 76.7734L26.1425 77.3785L25.62 77.076V77.6811L25.0974 77.9836Z" fill="url(#paint19_radial_758_2636)"/>
</g>
</g>
<defs>
<filter id="filter0_f_758_2636" x="5" y="5" width="33.0542" height="30.4219" filterUnits="userSpaceOnUse" color-interpolation-filters="sRGB">
<feFlood flood-opacity="0" result="BackgroundImageFix"/>
<feBlend mode="normal" in="SourceGraphic" in2="BackgroundImageFix" result="shape"/>
<feGaussianBlur stdDeviation="2" result="effect1_foregroundBlur_758_2636"/>
</filter>
<filter id="filter1_f_758_2636" x="0.854492" y="0.854492" width="40.3816" height="41.3452" filterUnits="userSpaceOnUse" color-interpolation-filters="sRGB">
<feFlood flood-opacity="0" result="BackgroundImageFix"/>
<feBlend mode="normal" in="SourceGraphic" in2="BackgroundImageFix" result="shape"/>
<feGaussianBlur stdDeviation="6" result="effect1_foregroundBlur_758_2636"/>
</filter>
<filter id="filter2_b_758_2636" x="2.78177" y="3.74536" width="37.4907" height="35.5635" filterUnits="userSpaceOnUse" color-interpolation-filters="sRGB">
<feFlood flood-opacity="0" result="BackgroundImageFix"/>
<feGaussianBlur in="BackgroundImageFix" stdDeviation="6"/>
<feComposite in2="SourceAlpha" operator="in" result="effect1_backgroundBlur_758_2636"/>
<feBlend mode="normal" in="SourceGraphic" in2="effect1_backgroundBlur_758_2636" result="shape"/>
</filter>
<filter id="filter3_b_758_2636" x="6.63626" y="6.63623" width="29.7817" height="29.7817" filterUnits="userSpaceOnUse" color-interpolation-filters="sRGB">
<feFlood flood-opacity="0" result="BackgroundImageFix"/>
<feGaussianBlur in="BackgroundImageFix" stdDeviation="6"/>
<feComposite in2="SourceAlpha" operator="in" result="effect1_backgroundBlur_758_2636"/>
<feBlend mode="normal" in="SourceGraphic" in2="effect1_backgroundBlur_758_2636" result="shape"/>
</filter>
<filter id="filter4_f_758_2636" x="12.0268" y="65.7522" width="30.8313" height="29.6509" filterUnits="userSpaceOnUse" color-interpolation-filters="sRGB">
<feFlood flood-opacity="0" result="BackgroundImageFix"/>
<feBlend mode="normal" in="SourceGraphic" in2="BackgroundImageFix" result="shape"/>
<feGaussianBlur stdDeviation="2" result="effect1_foregroundBlur_758_2636"/>
</filter>
<filter id="filter5_b_758_2636" x="11.7184" y="62.6128" width="32.626" height="34.1511" filterUnits="userSpaceOnUse" color-interpolation-filters="sRGB">
<feFlood flood-opacity="0" result="BackgroundImageFix"/>
<feGaussianBlur in="BackgroundImageFix" stdDeviation="6"/>
<feComposite in2="SourceAlpha" operator="in" result="effect1_backgroundBlur_758_2636"/>
<feBlend mode="normal" in="SourceGraphic" in2="effect1_backgroundBlur_758_2636" result="shape"/>
</filter>
<filter id="filter6_b_758_2636" x="13.9707" y="66.5876" width="27.8203" height="28.0857" filterUnits="userSpaceOnUse" color-interpolation-filters="sRGB">
<feFlood flood-opacity="0" result="BackgroundImageFix"/>
<feGaussianBlur in="BackgroundImageFix" stdDeviation="6"/>
<feComposite in2="SourceAlpha" operator="in" result="effect1_backgroundBlur_758_2636"/>
<feBlend mode="normal" in="SourceGraphic" in2="effect1_backgroundBlur_758_2636" result="shape"/>
</filter>
<filter id="filter7_f_758_2636" x="5.02306" y="4.21593" width="34.7982" height="32.8098" filterUnits="userSpaceOnUse" color-interpolation-filters="sRGB">
<feFlood flood-opacity="0" result="BackgroundImageFix"/>
<feBlend mode="normal" in="SourceGraphic" in2="BackgroundImageFix" result="shape"/>
<feGaussianBlur stdDeviation="1.98847" result="effect1_foregroundBlur_758_2636"/>
</filter>
<filter id="filter8_b_758_2636" x="3.03454" y="2.22738" width="38.7752" height="36.7867" filterUnits="userSpaceOnUse" color-interpolation-filters="sRGB">
<feFlood flood-opacity="0" result="BackgroundImageFix"/>
<feGaussianBlur in="BackgroundImageFix" stdDeviation="5.96541"/>
<feComposite in2="SourceAlpha" operator="in" result="effect1_backgroundBlur_758_2636"/>
<feBlend mode="normal" in="SourceGraphic" in2="effect1_backgroundBlur_758_2636" result="shape"/>
</filter>
<filter id="filter9_b_758_2636" x="7.64398" y="5.84262" width="29.6101" height="29.6099" filterUnits="userSpaceOnUse" color-interpolation-filters="sRGB">
<feFlood flood-opacity="0" result="BackgroundImageFix"/>
<feGaussianBlur in="BackgroundImageFix" stdDeviation="5.96541"/>
<feComposite in2="SourceAlpha" operator="in" result="effect1_backgroundBlur_758_2636"/>
<feBlend mode="normal" in="SourceGraphic" in2="effect1_backgroundBlur_758_2636" result="shape"/>
</filter>
<filter id="filter10_f_758_2636" x="10.0231" y="63.2159" width="34.7982" height="32.8098" filterUnits="userSpaceOnUse" color-interpolation-filters="sRGB">
<feFlood flood-opacity="0" result="BackgroundImageFix"/>
<feBlend mode="normal" in="SourceGraphic" in2="BackgroundImageFix" result="shape"/>
<feGaussianBlur stdDeviation="1.98847" result="effect1_foregroundBlur_758_2636"/>
</filter>
<filter id="filter11_b_758_2636" x="8.03454" y="61.2274" width="38.7752" height="36.7867" filterUnits="userSpaceOnUse" color-interpolation-filters="sRGB">
<feFlood flood-opacity="0" result="BackgroundImageFix"/>
<feGaussianBlur in="BackgroundImageFix" stdDeviation="5.96541"/>
<feComposite in2="SourceAlpha" operator="in" result="effect1_backgroundBlur_758_2636"/>
<feBlend mode="normal" in="SourceGraphic" in2="effect1_backgroundBlur_758_2636" result="shape"/>
</filter>
<filter id="filter12_b_758_2636" x="12.644" y="64.8426" width="29.6101" height="29.6099" filterUnits="userSpaceOnUse" color-interpolation-filters="sRGB">
<feFlood flood-opacity="0" result="BackgroundImageFix"/>
<feGaussianBlur in="BackgroundImageFix" stdDeviation="5.96541"/>
<feComposite in2="SourceAlpha" operator="in" result="effect1_backgroundBlur_758_2636"/>
<feBlend mode="normal" in="SourceGraphic" in2="effect1_backgroundBlur_758_2636" result="shape"/>
</filter>
<linearGradient id="paint0_linear_758_2636" x1="3.62493" y1="-6.39261" x2="3.30025" y2="20.6834" gradientUnits="userSpaceOnUse">
<stop stop-color="white"/>
<stop offset="1" stop-color="#C0A40E"/>
</linearGradient>
<linearGradient id="paint1_linear_758_2636" x1="4.30482" y1="-6.46791" x2="3.29927" y2="20.6863" gradientUnits="userSpaceOnUse">
<stop stop-color="white"/>
<stop offset="1" stop-color="#C0A40E"/>
</linearGradient>
<linearGradient id="paint2_linear_758_2636" x1="98.5235" y1="76.249" x2="93.8226" y2="53.229" gradientUnits="userSpaceOnUse">
<stop stop-color="white"/>
<stop offset="1" stop-color="#C0A40E"/>
</linearGradient>
<linearGradient id="paint3_linear_758_2636" x1="61.4732" y1="78.1695" x2="57.2979" y2="54.2281" gradientUnits="userSpaceOnUse">
<stop stop-color="white"/>
<stop offset="1" stop-color="#C0A40E"/>
</linearGradient>
<linearGradient id="paint4_linear_758_2636" x1="45" y1="73.6929" x2="40.8442" y2="55.2279" gradientUnits="userSpaceOnUse">
<stop stop-color="white"/>
<stop offset="1" stop-color="#C0A40E"/>
</linearGradient>
<linearGradient id="paint5_linear_758_2636" x1="4.11223" y1="0.635965" x2="3.29977" y2="20.6834" gradientUnits="userSpaceOnUse">
<stop stop-color="white"/>
<stop offset="1" stop-color="#C0A40E"/>
</linearGradient>
<radialGradient id="paint6_radial_758_2636" cx="0" cy="0" r="1" gradientUnits="userSpaceOnUse" gradientTransform="translate(21.5271 18.6094) rotate(128.658) scale(15.0404 17.1083)">
<stop offset="0.677083" stop-color="#6C8DFF"/>
<stop offset="0.78125" stop-color="#0B2DA4"/>
</radialGradient>
<radialGradient id="paint7_radial_758_2636" cx="0" cy="0" r="1" gradientUnits="userSpaceOnUse" gradientTransform="translate(21.0453 21.5271) rotate(90) scale(8.67261 8.1908)">
<stop stop-color="#2555FF"/>
<stop offset="1" stop-color="#0830E4" stop-opacity="0.56"/>
</radialGradient>
<radialGradient id="paint8_radial_758_2636" cx="0" cy="0" r="1" gradientUnits="userSpaceOnUse" gradientTransform="translate(21.5271 21.5271) rotate(90) scale(2.89087)">
<stop offset="0.125" stop-color="#324692"/>
<stop offset="0.34375" stop-color="#2E57F2"/>
<stop offset="0.947917" stop-color="#5174FF"/>
</radialGradient>
<radialGradient id="paint9_radial_758_2636" cx="0" cy="0" r="1" gradientUnits="userSpaceOnUse" gradientTransform="translate(28.153 81.5322) rotate(-137.886) scale(14.0603 15.8789)">
<stop stop-color="#4B87EA"/>
<stop offset="0.9998" stop-color="#4168FF"/>
<stop offset="0.9999" stop-color="#4B87EA"/>
</radialGradient>
<radialGradient id="paint10_radial_758_2636" cx="0" cy="0" r="1" gradientUnits="userSpaceOnUse" gradientTransform="translate(28.233 79.4251) rotate(-100.761) scale(5.12822 4.24312)">
<stop offset="0.505208" stop-color="#BFC7E9"/>
<stop offset="1" stop-color="#ACB9F7"/>
</radialGradient>
<radialGradient id="paint11_radial_758_2636" cx="0" cy="0" r="1" gradientUnits="userSpaceOnUse" gradientTransform="translate(27.9615 80.5245) rotate(-100.761) scale(2.05129 1.88583)">
<stop offset="0.192708" stop-color="#3D4D8B"/>
<stop offset="0.633689" stop-color="#748AE3"/>
<stop offset="1" stop-color="#4B87EA"/>
</radialGradient>
<radialGradient id="paint12_radial_758_2636" cx="0" cy="0" r="1" gradientUnits="userSpaceOnUse" gradientTransform="translate(22.4222 18.8454) rotate(127.711) scale(16.4575 18.5708)">
<stop offset="0.833333" stop-color="#C0A40E"/>
<stop offset="1" stop-color="white"/>
</radialGradient>
<radialGradient id="paint13_radial_758_2636" cx="0" cy="0" r="1" gradientUnits="userSpaceOnUse" gradientTransform="translate(22.4223 20.621) rotate(90) scale(9.44523 10.4395)">
<stop stop-color="#C0A40E"/>
<stop offset="1" stop-color="#C0A40E"/>
</radialGradient>
<radialGradient id="paint14_radial_758_2636" cx="0" cy="0" r="1" gradientUnits="userSpaceOnUse" gradientTransform="translate(22.4943 20.6929) rotate(146.31) scale(9.01388 10.4006)">
<stop offset="0.046875" stop-color="#4B87EA"/>
<stop offset="0.541667" stop-color="#AF9819"/>
<stop offset="0.979067" stop-color="#C0A40E"/>
<stop offset="0.979167" stop-color="#B9A677"/>
<stop offset="1" stop-color="#B9A677"/>
</radialGradient>
<radialGradient id="paint15_radial_758_2636" cx="0" cy="0" r="1" gradientUnits="userSpaceOnUse" gradientTransform="translate(22.449 20.6476) rotate(90) scale(2.8742)">
<stop stop-color="#254DA4"/>
<stop offset="1" stop-color="#4B87EA"/>
</radialGradient>
<radialGradient id="paint16_radial_758_2636" cx="0" cy="0" r="1" gradientUnits="userSpaceOnUse" gradientTransform="translate(27.4222 77.8454) rotate(127.711) scale(16.4575 18.5708)">
<stop offset="0.833333" stop-color="#C0A40E"/>
<stop offset="1" stop-color="white"/>
</radialGradient>
<radialGradient id="paint17_radial_758_2636" cx="0" cy="0" r="1" gradientUnits="userSpaceOnUse" gradientTransform="translate(27.4223 79.621) rotate(90) scale(9.44523 10.4395)">
<stop stop-color="#C0A40E"/>
<stop offset="1" stop-color="#C0A40E"/>
</radialGradient>
<radialGradient id="paint18_radial_758_2636" cx="0" cy="0" r="1" gradientUnits="userSpaceOnUse" gradientTransform="translate(27.4943 79.6929) rotate(146.31) scale(9.01388 10.4006)">
<stop offset="0.046875" stop-color="#4B87EA"/>
<stop offset="0.541667" stop-color="#AF9819"/>
<stop offset="0.979067" stop-color="#C0A40E"/>
<stop offset="0.979167" stop-color="#B9A677"/>
<stop offset="1" stop-color="#B9A677"/>
</radialGradient>
<radialGradient id="paint19_radial_758_2636" cx="0" cy="0" r="1" gradientUnits="userSpaceOnUse" gradientTransform="translate(27.449 79.6476) rotate(90) scale(2.8742)">
<stop stop-color="#254DA4"/>
<stop offset="1" stop-color="#4B87EA"/>
</radialGradient>
</defs>
</svg>
