<svg width="272" height="30" viewBox="0 0 272 30" fill="none" xmlns="http://www.w3.org/2000/svg">
<path d="M8.27 0.589999V5.09H0.65V0.589999H8.27ZM0.86 8.3H8.06V23H0.86V8.3ZM38.5177 23H31.3177V8.3H38.5177V23ZM31.6177 15.41L31.6777 16.85C31.6177 17.27 31.4177 17.76 31.0777 18.32C30.7577 18.88 30.3077 19.46 29.7277 20.06C29.1477 20.66 28.4377 21.22 27.5977 21.74C26.7577 22.24 25.7977 22.65 24.7177 22.97C23.6377 23.29 22.4377 23.45 21.1177 23.45C19.7977 23.45 18.5477 23.31 17.3677 23.03C16.1877 22.77 15.1377 22.33 14.2177 21.71C13.2977 21.09 12.5777 20.26 12.0577 19.22C11.5377 18.16 11.2777 16.84 11.2777 15.26V8.3H18.4777V14.51C18.4777 15.61 18.6577 16.46 19.0177 17.06C19.3977 17.66 19.9877 18.08 20.7877 18.32C21.5877 18.54 22.6177 18.65 23.8777 18.65C25.0577 18.65 26.1477 18.48 27.1477 18.14C28.1677 17.78 29.0577 17.35 29.8177 16.85C30.5977 16.35 31.1977 15.87 31.6177 15.41ZM41.6691 2.3H48.8691V23H41.6691V2.3ZM59.9497 0.589999V5.09H52.3297V0.589999H59.9497ZM52.5397 8.3H59.7397V23H52.5397V8.3ZM70.8774 0.589999V5.09H63.2574V0.589999H70.8774ZM63.4674 8.3H70.6674V23H63.4674V8.3ZM84.7752 23.42C82.6152 23.42 80.6952 23.12 79.0152 22.52C77.3352 21.9 76.0052 21.01 75.0252 19.85C74.0652 18.69 73.5852 17.29 73.5852 15.65C73.5852 13.93 74.0652 12.49 75.0252 11.33C76.0052 10.17 77.3352 9.3 79.0152 8.72C80.6952 8.14 82.6152 7.85 84.7752 7.85C87.1752 7.85 89.2452 8.18 90.9852 8.84C92.7452 9.48 94.0952 10.39 95.0352 11.57C95.9952 12.73 96.4752 14.09 96.4752 15.65C96.4752 16.81 96.2052 17.87 95.6652 18.83C95.1252 19.77 94.3452 20.59 93.3252 21.29C92.3052 21.97 91.0752 22.5 89.6352 22.88C88.1952 23.24 86.5752 23.42 84.7752 23.42ZM87.4752 18.86C88.9952 18.86 90.3852 18.77 91.6452 18.59C92.9252 18.39 93.9452 18.06 94.7052 17.6C95.4852 17.14 95.8752 16.49 95.8752 15.65C95.8752 14.79 95.4852 14.13 94.7052 13.67C93.9452 13.21 92.9252 12.89 91.6452 12.71C90.3852 12.53 88.9952 12.44 87.4752 12.44C85.4352 12.44 83.8552 12.71 82.7352 13.25C81.6152 13.77 81.0552 14.57 81.0552 15.65C81.0552 16.35 81.3052 16.94 81.8052 17.42C82.3052 17.9 83.0352 18.26 83.9952 18.5C84.9552 18.74 86.1152 18.86 87.4752 18.86ZM95.8752 8.3H103.075V23H96.2952C96.2952 23 96.2552 22.77 96.1752 22.31C96.1152 21.85 96.0452 21.19 95.9652 20.33C95.9052 19.47 95.8752 18.46 95.8752 17.3V8.3ZM113.559 18.47V23H105.939V18.47H113.559Z" fill="#2555FF"/>
<path d="M127.285 23.42C125.125 23.42 123.205 23.12 121.525 22.52C119.845 21.9 118.515 21.01 117.535 19.85C116.575 18.69 116.095 17.29 116.095 15.65C116.095 13.93 116.575 12.49 117.535 11.33C118.515 10.17 119.845 9.3 121.525 8.72C123.205 8.14 125.125 7.85 127.285 7.85C129.085 7.85 130.705 8.04 132.145 8.42C133.585 8.78 134.815 9.31 135.835 10.01C136.855 10.69 137.635 11.51 138.175 12.47C138.715 13.43 138.985 14.49 138.985 15.65C138.985 16.81 138.715 17.87 138.175 18.83C137.635 19.77 136.855 20.59 135.835 21.29C134.815 21.97 133.585 22.5 132.145 22.88C130.705 23.24 129.085 23.42 127.285 23.42ZM129.985 18.86C131.505 18.86 132.895 18.77 134.155 18.59C135.435 18.39 136.455 18.06 137.215 17.6C137.995 17.14 138.385 16.49 138.385 15.65C138.385 14.79 137.995 14.13 137.215 13.67C136.455 13.21 135.435 12.89 134.155 12.71C132.895 12.53 131.505 12.44 129.985 12.44C127.945 12.44 126.365 12.71 125.245 13.25C124.125 13.77 123.565 14.57 123.565 15.65C123.565 16.35 123.815 16.94 124.315 17.42C124.815 17.9 125.545 18.26 126.505 18.5C127.465 18.74 128.625 18.86 129.985 18.86ZM138.385 2.3H145.585V23H138.805C138.725 22.54 138.635 21.8 138.535 20.78C138.435 19.74 138.385 18.58 138.385 17.3V2.3ZM169.605 17.72H176.685C176.505 18.88 175.925 19.89 174.945 20.75C173.985 21.61 172.575 22.28 170.715 22.76C168.875 23.22 166.525 23.45 163.665 23.45C160.645 23.45 158.035 23.21 155.835 22.73C153.655 22.25 151.975 21.44 150.795 20.3C149.615 19.16 149.025 17.62 149.025 15.68C149.025 13.76 149.595 12.23 150.735 11.09C151.895 9.93 153.565 9.1 155.745 8.6C157.925 8.1 160.565 7.85 163.665 7.85C166.705 7.85 169.195 8.12 171.135 8.66C173.075 9.2 174.505 10.08 175.425 11.3C176.345 12.5 176.785 14.13 176.745 16.19H156.345C156.445 16.71 156.725 17.19 157.185 17.63C157.665 18.07 158.395 18.43 159.375 18.71C160.375 18.97 161.705 19.1 163.365 19.1C165.085 19.1 166.495 18.98 167.595 18.74C168.715 18.5 169.385 18.16 169.605 17.72ZM163.365 12.2C161.245 12.2 159.625 12.43 158.505 12.89C157.405 13.35 156.755 13.81 156.555 14.27H169.755C169.615 13.75 169.055 13.28 168.075 12.86C167.095 12.42 165.525 12.2 163.365 12.2ZM178.999 17.72H185.629C185.909 18.24 186.439 18.6 187.219 18.8C188.019 19 189.159 19.1 190.639 19.1C191.779 19.1 192.619 19.04 193.159 18.92C193.719 18.8 194.079 18.64 194.239 18.44C194.419 18.24 194.509 18.03 194.509 17.81C194.509 17.47 194.319 17.24 193.939 17.12C193.579 16.98 192.959 16.9 192.079 16.88C191.199 16.84 189.989 16.82 188.449 16.82C186.989 16.82 185.679 16.76 184.519 16.64C183.379 16.5 182.409 16.29 181.609 16.01C180.809 15.71 180.199 15.3 179.779 14.78C179.359 14.26 179.149 13.61 179.149 12.83C179.149 11.87 179.459 11.07 180.079 10.43C180.699 9.77 181.539 9.26 182.599 8.9C183.659 8.52 184.879 8.25 186.259 8.09C187.659 7.93 189.119 7.85 190.639 7.85C193.159 7.85 195.219 8.11 196.819 8.63C198.419 9.13 199.599 9.81 200.359 10.67C201.119 11.53 201.489 12.5 201.469 13.58H195.019C194.799 13.06 194.379 12.7 193.759 12.5C193.159 12.3 192.119 12.2 190.639 12.2C189.239 12.2 188.219 12.31 187.579 12.53C186.959 12.73 186.649 13.06 186.649 13.52C186.649 13.82 186.799 14.05 187.099 14.21C187.419 14.35 188.009 14.45 188.869 14.51C189.749 14.57 191.029 14.6 192.709 14.6C193.869 14.6 194.999 14.64 196.099 14.72C197.219 14.8 198.219 14.97 199.099 15.23C199.999 15.49 200.709 15.89 201.229 16.43C201.749 16.97 202.009 17.71 202.009 18.65C202.009 19.79 201.539 20.72 200.599 21.44C199.679 22.14 198.369 22.65 196.669 22.97C194.969 23.29 192.959 23.45 190.639 23.45C188.619 23.45 186.909 23.32 185.509 23.06C184.129 22.8 182.999 22.46 182.119 22.04C181.239 21.6 180.559 21.13 180.079 20.63C179.619 20.11 179.309 19.6 179.149 19.1C179.009 18.58 178.959 18.12 178.999 17.72ZM212.323 0.589999V5.09H204.703V0.589999H212.323ZM204.913 8.3H212.113V23H204.913V8.3ZM227.45 20.93C224.61 20.93 222.27 20.7 220.43 20.24C218.59 19.76 217.23 19.05 216.35 18.11C215.47 17.15 215.03 15.95 215.03 14.51C215.03 13.17 215.46 12.01 216.32 11.03C217.18 10.03 218.52 9.25 220.34 8.69C222.18 8.13 224.55 7.85 227.45 7.85C228.03 7.85 228.62 7.85 229.22 7.85C229.82 7.85 230.41 7.85 230.99 7.85H242.45V11.63C241.15 11.69 239.83 11.63 238.49 11.45C237.17 11.25 235.95 10.99 234.83 10.67L234.5 10.22C235.4 10.5 236.25 10.86 237.05 11.3C237.87 11.74 238.53 12.27 239.03 12.89C239.53 13.51 239.78 14.25 239.78 15.11C239.78 16.35 239.35 17.41 238.49 18.29C237.65 19.15 236.32 19.81 234.5 20.27C232.7 20.71 230.35 20.93 227.45 20.93ZM233.84 29.45V28.64C233.84 28.04 233.57 27.68 233.03 27.56C232.51 27.46 231.68 27.41 230.54 27.41H222.17C220.75 27.41 219.6 27.31 218.72 27.11C217.86 26.91 217.2 26.64 216.74 26.3C216.3 25.96 216 25.58 215.84 25.16C215.7 24.76 215.63 24.36 215.63 23.96C215.63 23.1 215.95 22.43 216.59 21.95C217.23 21.45 218.21 21.1 219.53 20.9C220.85 20.7 222.53 20.6 224.57 20.6L227.45 20.93C225.77 20.93 224.6 21.02 223.94 21.2C223.28 21.36 222.95 21.69 222.95 22.19C222.95 22.47 223.08 22.68 223.34 22.82C223.6 22.94 223.95 23 224.39 23H233.24C235.22 23 236.78 23.14 237.92 23.42C239.06 23.72 239.86 24.21 240.32 24.89C240.8 25.59 241.04 26.54 241.04 27.74V29.45H233.84ZM227.45 17C228.77 17 229.83 16.9 230.63 16.7C231.45 16.48 232.04 16.19 232.4 15.83C232.76 15.47 232.94 15.07 232.94 14.63C232.94 14.13 232.76 13.7 232.4 13.34C232.04 12.98 231.46 12.7 230.66 12.5C229.86 12.3 228.79 12.2 227.45 12.2C226.13 12.2 225.06 12.3 224.24 12.5C223.42 12.7 222.82 12.98 222.44 13.34C222.06 13.7 221.87 14.13 221.87 14.63C221.87 15.07 222.05 15.47 222.41 15.83C222.79 16.19 223.39 16.48 224.21 16.7C225.03 16.9 226.11 17 227.45 17ZM244.393 8.3H251.593V23H244.393V8.3ZM262.393 7.85C263.573 7.85 264.713 7.98 265.813 8.24C266.913 8.48 267.893 8.9 268.753 9.5C269.633 10.1 270.333 10.92 270.853 11.96C271.373 13 271.633 14.31 271.633 15.89V23H264.433V16.79C264.433 15.29 264.043 14.23 263.263 13.61C262.483 12.97 261.073 12.65 259.033 12.65C257.953 12.65 256.903 12.77 255.883 13.01C254.883 13.25 253.983 13.54 253.183 13.88C252.383 14.2 251.753 14.52 251.293 14.84L251.233 13.7C251.313 13.34 251.583 12.84 252.043 12.2C252.523 11.54 253.213 10.88 254.113 10.22C255.013 9.56 256.143 9 257.503 8.54C258.883 8.08 260.513 7.85 262.393 7.85Z" fill="#111827"/>
</svg>
