<svg width="106" height="89" viewBox="0 0 106 89" fill="none" xmlns="http://www.w3.org/2000/svg">
<path d="M46.9148 23.2053V44.2871H40.4543V41.4158C39.7994 42.3477 38.9053 43.1033 37.7719 43.6826C36.6636 44.2367 35.4294 44.5138 34.0693 44.5138C32.4573 44.5138 31.0343 44.1612 29.8001 43.4559C28.5659 42.7255 27.6088 41.6802 26.9287 40.3201C26.2487 38.96 25.9086 37.3606 25.9086 35.5219V23.2053H32.3314V34.653C32.3314 36.0635 32.6966 37.1591 33.427 37.9399C34.1575 38.7207 35.1398 39.1111 36.374 39.1111C37.6333 39.1111 38.6282 38.7207 39.3587 37.9399C40.0891 37.1591 40.4543 36.0635 40.4543 34.653V23.2053H46.9148Z" fill="#0E183E"/>
<path d="M50.7763 62.0366L46.8402 41.3255L40.5036 42.5853L41.0397 45.4061C40.2234 44.6183 39.2054 44.0503 37.9855 43.7022C36.7951 43.3739 35.5329 43.3424 34.1989 43.6076C32.6179 43.9219 31.2879 44.5458 30.2091 45.4793C29.135 46.4376 28.3914 47.6511 27.9784 49.1199C27.5653 50.5887 27.5304 52.2263 27.8737 54.0326L30.1733 66.1326L36.4728 64.8802L34.3354 53.6339C34.0721 52.2482 34.2257 51.1006 34.7964 50.1911C35.367 49.2816 36.2575 48.7065 37.468 48.4659C38.7032 48.2203 39.7519 48.4098 40.6141 49.0345C41.4763 49.6591 42.0391 50.6643 42.3024 52.05L44.4398 63.2963L50.7763 62.0366Z" fill="url(#paint0_linear_3_3630)" fill-opacity="0.2"/>
<path d="M78.2067 33.5827C78.2067 31.4166 78.6097 29.515 79.4157 27.8778C80.2468 26.2406 81.3677 24.9813 82.7782 24.0997C84.1887 23.2181 85.7629 22.7774 87.5008 22.7774C88.9868 22.7774 90.284 23.0796 91.3922 23.6841C92.5256 24.2886 93.3946 25.082 93.9991 26.0643V23.0796H100.46V44.1614H93.9991V41.1767C93.3694 42.159 92.4879 42.9524 91.3544 43.5569C90.2462 44.1614 88.9491 44.4636 87.463 44.4636C85.7503 44.4636 84.1887 44.0228 82.7782 43.1413C81.3677 42.2345 80.2468 40.9626 79.4157 39.3254C78.6097 37.6631 78.2067 35.7488 78.2067 33.5827ZM93.9991 33.6205C93.9991 32.0085 93.5457 30.7365 92.639 29.8046C91.7574 28.8727 90.6744 28.4067 89.3898 28.4067C88.1053 28.4067 87.0096 28.8727 86.1029 29.8046C85.2213 30.7114 84.7806 31.9707 84.7806 33.5827C84.7806 35.1947 85.2213 36.4793 86.1029 37.4364C87.0096 38.3683 88.1053 38.8343 89.3898 38.8343C90.6744 38.8343 91.7574 38.3683 92.639 37.4364C93.5457 36.5044 93.9991 35.2325 93.9991 33.6205Z" fill="#0E183E"/>
<path d="M80.7759 58.6043C81.1439 60.739 81.8636 62.5414 82.9349 64.0117C84.031 65.4776 85.348 66.5197 86.8859 67.1381C88.4238 67.7565 90.0479 67.9115 91.7582 67.6031C93.2207 67.3393 94.4459 66.8113 95.4338 66.0189C96.4466 65.222 97.1669 64.2859 97.5949 63.2106L98.102 66.1519L104.46 65.0053L100.878 44.23L94.5204 45.3766L95.0275 48.3179C94.2409 47.4616 93.2385 46.8362 92.0204 46.4417C90.827 46.0427 89.4991 45.975 88.0367 46.2388C86.3511 46.5428 84.8892 47.2543 83.6509 48.3734C82.4168 49.5173 81.5299 50.9697 80.99 52.7305C80.4793 54.5118 80.4079 56.4697 80.7759 58.6043ZM96.3112 55.7642C96.5851 57.3528 96.355 58.6867 95.621 59.766C94.9117 60.8409 93.925 61.4923 92.6609 61.7203C91.3967 61.9483 90.2393 61.6835 89.1886 60.9261C88.167 60.189 87.5193 59.0261 87.2454 57.4376C86.9715 55.849 87.1871 54.5049 87.892 53.4053C88.6261 52.326 89.6252 51.6723 90.8893 51.4443C92.1535 51.2163 93.2985 51.4833 94.3244 52.2452C95.3751 53.0027 96.0373 54.1757 96.3112 55.7642Z" fill="url(#paint1_linear_3_3630)" fill-opacity="0.2"/>
<path d="M55.9776 16.3292V44.2871H49.5171V16.3292H55.9776Z" fill="#0E183E"/>
<path d="M61.386 69.915L56.166 42.4487L49.8294 43.7085L55.0494 71.1747L61.386 69.915Z" fill="url(#paint2_linear_3_3630)" fill-opacity="0.2"/>
<rect x="60.2882" y="24.0356" width="6.55709" height="19.1614" fill="#0E183E"/>
<ellipse cx="63.5668" cy="20.6825" rx="3.27854" ry="3.35324" fill="#C0A40E"/>
<rect x="14.3879" y="24.0356" width="6.55709" height="19.1614" fill="#0E183E"/>
<rect width="6.56259" height="20.5642" transform="matrix(0.980805 -0.194993 -0.186708 -0.982415 64.4066 65.2527)" fill="url(#paint3_linear_3_3630)" fill-opacity="0.2"/>
<ellipse rx="3.28129" ry="3.59874" transform="matrix(0.980805 -0.194993 -0.186708 -0.982415 68.2968 68.1483)" fill="#0E183E"/>
<rect width="6.56259" height="20.5642" transform="matrix(0.980805 -0.194993 -0.186708 -0.982415 18.5072 65.2527)" fill="url(#paint4_linear_3_3630)" fill-opacity="0.2"/>
<rect x="67.7815" y="24.0356" width="6.55709" height="19.1614" fill="#0E183E"/>
<ellipse cx="71.06" cy="20.6825" rx="3.27854" ry="3.35324" fill="#C0A40E"/>
<rect width="6.56164" height="20.5671" transform="matrix(0.984124 -0.177481 -0.169893 -0.985463 71.7775 65.2164)" fill="url(#paint5_linear_3_3630)" fill-opacity="0.2"/>
<ellipse rx="3.28082" ry="3.59923" transform="matrix(0.984124 -0.177481 -0.169893 -0.985463 75.6177 68.1811)" fill="#0E183E"/>
<g filter="url(#filter0_f_3_3630)">
<path d="M6.44613 9.23282H5.22594L6.44613 10.541L5.22594 11.8492L6.44613 13.1574L5.22594 14.4656L4.00574 15.7738L5.22594 17.082L4.00574 18.3902L6.44613 19.6985L4.00574 21.0067L6.44613 22.3149V23.6231L5.22594 24.9313L8.88653 26.2395L7.66633 27.5477H10.1067L12.5471 26.8838L13.7673 28.8559L16.2077 27.5477L17.4279 26.2395L19.8683 27.5477H22.3087L23.5289 26.2395H24.7491L25.9693 23.6231L27.1895 22.3149L28.4097 21.0067H29.6299V18.3902L30.8501 17.082L29.6299 15.7738V13.1574L28.4097 11.8492V10.541L25.9693 9.23282V7.92461H23.5289L24.7491 6.61641H23.5289L22.3087 4L21.0885 5.3082L18.6481 4L17.4279 6.61641L16.2077 4L14.9875 6.61641L13.7673 5.3082L12.5471 4L11.3269 6.61641L8.88653 5.3082V7.92461L6.44613 9.23282Z" fill="url(#paint6_radial_3_3630)"/>
</g>
<path d="M8.88661 10.9597H7.93757L8.88661 11.954L7.93757 12.9482L8.88661 13.9424L7.93757 14.9367L6.98853 15.9309L7.93757 16.9251L6.98853 17.9194L8.88661 18.9136L6.98853 19.9078L8.88661 20.9021V21.8963L7.93757 22.8906L10.7847 23.8848L9.83565 24.879H11.7337L13.6318 24.3745L14.5809 25.8733L16.479 24.879L17.428 23.8848L19.3261 24.879H21.2242L22.1732 23.8848H23.1223L24.0713 21.8963L25.0203 20.9021L25.9694 19.9078H26.9184V17.9194L27.8675 16.9251L26.9184 15.9309V13.9424L25.9694 12.9482V11.954L24.0713 10.9597V9.96549H22.1732L23.1223 8.97126H22.1732L21.2242 6.98279L20.2751 7.97702L18.377 6.98279L17.428 8.97126L16.479 6.98279L15.5299 8.97126L14.5809 7.97702L13.6318 6.98279L12.6828 8.97126L10.7847 7.97702V9.96549L8.88661 10.9597Z" fill="url(#paint7_radial_3_3630)"/>
<g filter="url(#filter1_b_3_3630)">
<path d="M11.3268 12.6864H10.649L11.3268 13.3667L10.649 14.0469L11.3268 14.7272L10.649 15.4075L9.97107 16.0877L10.649 16.768L9.97107 17.4483L11.3268 18.1285L9.97107 18.8088L11.3268 19.4891V20.1693L10.649 20.8496L12.6826 21.5299L12.0047 22.2101H13.3605L14.7163 21.8649L15.3942 22.8904L16.7499 22.2101L17.4278 21.5299L18.7836 22.2101H20.1394L20.8173 21.5299H21.4952L22.173 20.1693L22.8509 19.4891L23.5288 18.8088H24.2067V17.4483L24.8846 16.768L24.2067 16.0877V14.7272L23.5288 14.0469V13.3667L22.173 12.6864V12.0061H20.8173L21.4952 11.3259H20.8173L20.1394 9.96533L19.4615 10.6456L18.1057 9.96533L17.4278 11.3259L16.7499 9.96533L16.0721 11.3259L15.3942 10.6456L14.7163 9.96533L14.0384 11.3259L12.6826 10.6456V12.0061L11.3268 12.6864Z" fill="url(#paint8_radial_3_3630)"/>
</g>
<g filter="url(#filter2_b_3_3630)">
<path d="M15.1031 14.7908H14.8419L15.1031 15.0933L14.8419 15.3959L15.1031 15.6984L14.8419 16.0009L14.5806 16.3035L14.8419 16.606L14.5806 16.9086L15.1031 17.2111L14.5806 17.5137L15.1031 17.8162V18.1188L14.8419 18.4213L15.6257 18.7239L15.3644 19.0264H15.887L16.4096 18.8729L16.6709 19.329L17.1935 19.0264L17.4548 18.7239L17.9774 19.0264H18.4999L18.7612 18.7239H19.0225L19.2838 18.1188L19.5451 17.8162L19.8064 17.5137H20.0677V16.9086L20.329 16.606L20.0677 16.3035V15.6984L19.8064 15.3959V15.0933L19.2838 14.7908V14.4882H18.7612L19.0225 14.1857H18.7612L18.4999 13.5806L18.2386 13.8831L17.7161 13.5806L17.4548 14.1857L17.1935 13.5806L16.9322 14.1857L16.6709 13.8831L16.4096 13.5806L16.1483 14.1857L15.6257 13.8831V14.4882L15.1031 14.7908Z" fill="url(#paint9_radial_3_3630)"/>
</g>
<g filter="url(#filter3_f_3_3630)">
<path d="M14.8865 79.479L13.8834 79.6784L14.6761 78.3718L13.4626 77.4639L14.2552 76.1573L13.0417 75.2494L11.8281 74.3416L12.6208 73.0349L11.4073 72.1271L13.2031 70.621L10.9864 69.9126L12.7822 68.4065L12.5718 67.2992L11.3582 66.3914L14.1571 64.6859L12.9436 63.778L14.9498 63.3792L17.0628 63.5422L17.7487 61.6737L19.9653 62.3821L21.1789 63.2899L22.9747 61.7838L24.9809 61.3849L26.1944 62.2927L27.1975 62.0933L28.6215 64.1084L29.835 65.0162L31.0486 65.9241L32.0517 65.7246L32.4726 67.9391L33.6861 68.847L32.8934 70.1536L33.3143 72.3681L32.5216 73.6748L32.7321 74.7821L30.9363 76.2882L31.1467 77.3954L29.1405 77.7943L30.354 78.7021L29.3509 78.9015L28.7687 81.3155L27.5551 80.4077L25.7594 81.9138L24.3354 79.8987L23.7531 82.3126L22.3292 80.2975L21.5365 81.6042L20.7438 82.9109L19.3198 80.8958L17.524 82.4019L17.1032 80.1874L14.8865 79.479Z" fill="url(#paint10_radial_3_3630)" fill-opacity="0.2"/>
</g>
<g filter="url(#filter4_b_3_3630)">
<path d="M20.2877 74.5749L19.9115 74.6497L20.1875 74.0476L19.7111 73.5951L19.987 72.9931L19.5107 72.5406L19.0343 72.0881L19.3103 71.4861L18.8339 71.0336L19.486 70.3568L18.6335 69.9791L19.2856 69.3022L19.1854 68.775L18.709 68.3225L19.7373 67.5709L19.2609 67.1184L20.0133 66.9688L20.8164 67.0868L21.0416 66.2172L21.8941 66.5949L22.3705 67.0474L23.0226 66.3705L23.7749 66.221L24.2513 66.6735L24.6275 66.5987L25.204 67.5784L25.6804 68.0309L26.1568 68.4834L26.533 68.4086L26.7334 69.4631L27.2097 69.9156L26.9338 70.5176L27.1342 71.5722L26.8582 72.1742L26.9584 72.7015L26.3063 73.3783L26.4065 73.9056L25.6542 74.0551L26.1306 74.5076L25.7544 74.5824L25.5786 75.7117L25.1023 75.2592L24.4501 75.9361L23.8736 74.9563L23.6978 76.0856L23.1212 75.1059L22.8453 75.708L22.5693 76.31L21.9927 75.3303L21.3406 76.0071L21.1402 74.9526L20.2877 74.5749Z" fill="url(#paint11_radial_3_3630)" fill-opacity="0.2"/>
</g>
<g filter="url(#filter5_b_3_3630)">
<path d="M21.5681 73.5543L21.4009 73.5875L21.528 73.3434L21.3207 73.1657L21.4478 72.9215L21.2406 72.7439L21.0333 72.5662L21.1604 72.3221L20.9531 72.1444L21.2474 71.867L20.873 71.7226L21.1673 71.4452L21.1272 71.2343L20.9199 71.0566L21.3814 70.746L21.1741 70.5683L21.5085 70.5019L21.8632 70.5424L21.97 70.1913L22.3444 70.3357L22.5517 70.5133L22.846 70.236L23.1803 70.1695L23.3876 70.3472L23.5548 70.3139L23.8021 70.7025L24.0094 70.8802L24.2167 71.0578L24.3839 71.0246L24.464 71.4464L24.6713 71.6241L24.5442 71.8682L24.6243 72.29L24.4972 72.5342L24.5373 72.7451L24.243 73.0225L24.2831 73.2334L23.9488 73.2998L24.156 73.4775L23.9888 73.5107L23.9018 73.9658L23.6945 73.7881L23.4003 74.0655L23.1529 73.6769L23.0659 74.132L22.8185 73.7434L22.6914 73.9875L22.5643 74.2317L22.317 73.8431L22.0227 74.1205L21.9425 73.6987L21.5681 73.5543Z" fill="url(#paint12_radial_3_3630)" fill-opacity="0.2"/>
</g>
<defs>
<filter id="filter0_f_3_3630" x="0.0287962" y="0.0230589" width="34.7982" height="32.8097" filterUnits="userSpaceOnUse" color-interpolation-filters="sRGB">
<feFlood flood-opacity="0" result="BackgroundImageFix"/>
<feBlend mode="normal" in="SourceGraphic" in2="BackgroundImageFix" result="shape"/>
<feGaussianBlur stdDeviation="1.98847" result="effect1_foregroundBlur_3_3630"/>
</filter>
<filter id="filter1_b_3_3630" x="-1.95975" y="-1.96549" width="38.7752" height="36.7867" filterUnits="userSpaceOnUse" color-interpolation-filters="sRGB">
<feFlood flood-opacity="0" result="BackgroundImageFix"/>
<feGaussianBlur in="BackgroundImageFix" stdDeviation="5.96541"/>
<feComposite in2="SourceAlpha" operator="in" result="effect1_backgroundBlur_3_3630"/>
<feBlend mode="normal" in="SourceGraphic" in2="effect1_backgroundBlur_3_3630" result="shape"/>
</filter>
<filter id="filter2_b_3_3630" x="2.64974" y="1.64974" width="29.6101" height="29.6101" filterUnits="userSpaceOnUse" color-interpolation-filters="sRGB">
<feFlood flood-opacity="0" result="BackgroundImageFix"/>
<feGaussianBlur in="BackgroundImageFix" stdDeviation="5.96541"/>
<feComposite in2="SourceAlpha" operator="in" result="effect1_backgroundBlur_3_3630"/>
<feBlend mode="normal" in="SourceGraphic" in2="effect1_backgroundBlur_3_3630" result="shape"/>
</filter>
<filter id="filter3_f_3_3630" x="7.00951" y="57.4079" width="30.6536" height="29.4799" filterUnits="userSpaceOnUse" color-interpolation-filters="sRGB">
<feFlood flood-opacity="0" result="BackgroundImageFix"/>
<feBlend mode="normal" in="SourceGraphic" in2="BackgroundImageFix" result="shape"/>
<feGaussianBlur stdDeviation="1.98847" result="effect1_foregroundBlur_3_3630"/>
</filter>
<filter id="filter4_b_3_3630" x="6.7026" y="54.2863" width="32.4379" height="33.9545" filterUnits="userSpaceOnUse" color-interpolation-filters="sRGB">
<feFlood flood-opacity="0" result="BackgroundImageFix"/>
<feGaussianBlur in="BackgroundImageFix" stdDeviation="5.96541"/>
<feComposite in2="SourceAlpha" operator="in" result="effect1_backgroundBlur_3_3630"/>
<feBlend mode="normal" in="SourceGraphic" in2="effect1_backgroundBlur_3_3630" result="shape"/>
</filter>
<filter id="filter5_b_3_3630" x="8.9421" y="58.2386" width="27.66" height="27.9239" filterUnits="userSpaceOnUse" color-interpolation-filters="sRGB">
<feFlood flood-opacity="0" result="BackgroundImageFix"/>
<feGaussianBlur in="BackgroundImageFix" stdDeviation="5.96541"/>
<feComposite in2="SourceAlpha" operator="in" result="effect1_backgroundBlur_3_3630"/>
<feBlend mode="normal" in="SourceGraphic" in2="effect1_backgroundBlur_3_3630" result="shape"/>
</filter>
<linearGradient id="paint0_linear_3_3630" x1="41.1199" y1="69.9902" x2="35.8934" y2="43.7013" gradientUnits="userSpaceOnUse">
<stop stop-color="white"/>
<stop offset="1" stop-color="#253455"/>
</linearGradient>
<linearGradient id="paint1_linear_3_3630" x1="94.0075" y1="69.8555" x2="90.0993" y2="48.1849" gradientUnits="userSpaceOnUse">
<stop stop-color="white"/>
<stop offset="1" stop-color="#203050"/>
</linearGradient>
<linearGradient id="paint2_linear_3_3630" x1="57.1707" y1="69.7764" x2="51.9442" y2="43.4875" gradientUnits="userSpaceOnUse">
<stop stop-color="white"/>
<stop offset="1" stop-color="#25365A"/>
</linearGradient>
<linearGradient id="paint3_linear_3_3630" x1="3.28129" y1="0" x2="3.28129" y2="20.5642" gradientUnits="userSpaceOnUse">
<stop stop-color="white"/>
<stop offset="0.682292" stop-color="#26375D"/>
</linearGradient>
<linearGradient id="paint4_linear_3_3630" x1="3.28129" y1="0" x2="3.28129" y2="20.5642" gradientUnits="userSpaceOnUse">
<stop stop-color="white"/>
<stop offset="0.505208" stop-color="#293A5F"/>
</linearGradient>
<linearGradient id="paint5_linear_3_3630" x1="3.28082" y1="0" x2="3.28082" y2="20.5671" gradientUnits="userSpaceOnUse">
<stop stop-color="white"/>
<stop offset="0.677083" stop-color="#223356"/>
</linearGradient>
<radialGradient id="paint6_radial_3_3630" cx="0" cy="0" r="1" gradientUnits="userSpaceOnUse" gradientTransform="translate(17.4279 14.6525) rotate(127.711) scale(16.4575 18.5708)">
<stop offset="0.833333" stop-color="#C0A40E"/>
<stop offset="1" stop-color="white"/>
</radialGradient>
<radialGradient id="paint7_radial_3_3630" cx="0" cy="0" r="1" gradientUnits="userSpaceOnUse" gradientTransform="translate(17.428 16.428) rotate(90) scale(9.44523 10.4395)">
<stop stop-color="#C0A40E"/>
<stop offset="1" stop-color="#C0A40E"/>
</radialGradient>
<radialGradient id="paint8_radial_3_3630" cx="0" cy="0" r="1" gradientUnits="userSpaceOnUse" gradientTransform="translate(17.5 16.5) rotate(146.31) scale(9.01388 10.4006)">
<stop offset="0.046875" stop-color="#4B87EA"/>
<stop offset="0.541667" stop-color="#AF9819"/>
<stop offset="0.979067" stop-color="#C0A40E"/>
<stop offset="0.979167" stop-color="#B9A677"/>
<stop offset="1" stop-color="#B9A677"/>
</radialGradient>
<radialGradient id="paint9_radial_3_3630" cx="0" cy="0" r="1" gradientUnits="userSpaceOnUse" gradientTransform="translate(17.4548 16.4548) rotate(90) scale(2.8742)">
<stop stop-color="#254DA4"/>
<stop offset="1" stop-color="#4B87EA"/>
</radialGradient>
<radialGradient id="paint10_radial_3_3630" cx="0" cy="0" r="1" gradientUnits="userSpaceOnUse" gradientTransform="translate(23.0427 73.097) rotate(-137.886) scale(13.9792 15.7873)">
<stop stop-color="#28385E"/>
<stop offset="0.630208" stop-color="#9AA6DA"/>
<stop offset="1" stop-color="white"/>
</radialGradient>
<radialGradient id="paint11_radial_3_3630" cx="0" cy="0" r="1" gradientUnits="userSpaceOnUse" gradientTransform="translate(23.122 71.0019) rotate(-100.761) scale(5.09866 4.21866)">
<stop stop-color="#48506F"/>
<stop offset="1" stop-color="#8D99CF"/>
</radialGradient>
<radialGradient id="paint12_radial_3_3630" cx="0" cy="0" r="1" gradientUnits="userSpaceOnUse" gradientTransform="translate(22.8523 72.0951) rotate(-100.761) scale(2.03946 1.87496)">
<stop stop-color="#3D4D8B"/>
<stop offset="1" stop-color="#B9A677"/>
</radialGradient>
</defs>
</svg>
